<svg data-name="Layer 1" xmlns="http://www.w3.org/2000/svg" version="1.1" viewBox="0 0 500 400">
  <path d="M36.96 382.94h7v-21.06h7.58v-6.1H29.35v6.1h7.62v21.06zm41.62 0h8.02l-5.53-9.98c2.52-.9 5.41-3.42 5.41-8.14 0-5.05-3.42-9.04-9.44-9.04h-13.6v27.16h7v-9.2h3.59l4.56 9.2zm.77-18.2c0 1.88-1.55 3.06-3.38 3.06h-5.54v-6.11h5.54c1.83 0 3.38 1.18 3.38 3.06zm19.55 7.21c0 6.68 3.91 11.48 12.62 11.48s12.58-4.76 12.58-11.52v-16.13h-7.12v15.92c0 3.22-1.71 5.54-5.46 5.54s-5.5-2.32-5.5-5.54v-15.92H98.9v16.17zm36.7 7.17c2.73 2.6 6.55 4.31 12.05 4.31 7.29 0 11.32-3.62 11.32-9.08 0-6.15-6.19-7.45-10.67-8.39-3.02-.57-4.69-1.06-4.69-2.49 0-1.18.9-2.12 3.22-2.12s5.38.94 7.66 2.81l3.83-5.01c-2.89-2.48-6.67-3.79-11.04-3.79-6.96 0-10.83 3.95-10.83 8.51 0 6.44 6.27 7.58 10.75 8.47 2.89.61 4.65 1.22 4.65 2.77 0 1.3-1.47 2.32-3.87 2.32-3.71 0-6.72-1.63-8.67-3.58l-3.7 5.25zm41.09 3.82h7v-21.06h7.57v-6.1h-22.19v6.1h7.62v21.06zm58.56.49c6.76 0 10.31-3.78 12.05-7.28l-6.02-2.85c-.89 2.16-3.22 3.95-6.03 3.95-4.23 0-7.37-3.42-7.37-7.86s3.14-7.86 7.37-7.86c2.81 0 5.14 1.79 6.03 3.95l6.02-2.85c-1.79-3.58-5.29-7.29-12.05-7.29-8.14 0-14.49 5.66-14.49 14.05s6.35 14.05 14.49 14.05zm22.24-14.05c0 8.27 6.22 14.05 14.53 14.05s14.5-5.78 14.5-14.05-6.18-14.05-14.5-14.05-14.53 5.78-14.53 14.05zm21.91 0c0 4.4-2.89 7.86-7.38 7.86s-7.41-3.46-7.41-7.86 2.89-7.86 7.41-7.86 7.38 3.42 7.38 7.86zm43.04 13.56h7.01v-27.16h-9.73l-5.71 15.39-5.67-15.39h-9.73v27.16h7v-18.32l6.84 18.32h3.1l6.88-18.32v18.32zm20.45 0h7v-9.2h6.61c6.1 0 9.44-4.03 9.44-8.92s-3.34-9.04-9.44-9.04h-13.61v27.16zm15.92-18.16c0 1.83-1.38 3.02-3.26 3.02h-5.67v-6.11h5.67c1.88 0 3.26 1.22 3.26 3.1zm34.65 18.16h7.61l-10.25-27.16h-8.79l-10.22 27.16h7.61l1.38-4.11h11.28l1.38 4.11zm-7.04-21.05l3.83 11.04h-7.61l3.79-11.04zm43.7 21.05h6.75v-27.16h-7.04v15.64l-11.01-15.64h-7.2v27.16h7v-16.41l11.49 16.41zm27.61 0h7.01v-10.95L475 355.78h-7.95l-5.82 10.02-5.9-10.02h-7.9l10.3 16.21v10.95z" fill="#231f20"/>
  <path d="M247.8 9.73h-15.1c-14.93 0-29.76.57-44.07 5.21-15.41 5.01-28.78 15.33-38.51 28.18-10.01 13.22-16.24 29.11-18.06 45.58-.39 3.5-.58 7.01-.58 10.53 0 35.91 19.95 66.89 48.8 81.29 9.77 4.23 22.91 7.28 35.55 8.44v-32.28c0 .27-9.38-1.59-10.21-1.83-3.39-.96-6.67-2.26-9.81-3.86-6.31-3.22-11.99-7.63-16.73-12.88-11.12-12.33-16.55-29.14-14.59-45.64 1.42-11.93 6.51-23.34 14.62-32.24 10.87-11.92 26.55-16.86 42.26-17.97 8.79-.63 17.68-.29 26.49-.29l-.05-32.25zM354.57 97.3c8.09-9.29 12.99-21.44 12.99-34.72 0-12.42-4.44-24.61-12.45-34.1-9.33-11.06-22.91-18.83-37.5-18.77-7.59.03-15.11.03-22.65.03-3.6 0-11.36-.06-14.97-.06v32.28h13.76c5.08 0 10.35-.16 15.49-.11 4.84.05 9.92.12 14.39 2.21.2.09.4.18.6.28.22.12.45.25.67.38.41.23.8.47 1.2.73.09.06.18.13.28.2.3.21.62.41.93.65.14.11.28.25.43.37.03.02.06.05.1.08.44.37.86.76 1.28 1.17.08.09.16.16.24.25.36.36.69.73 1.01 1.11a22.15 22.15 0 011.14 1.48c.11.16.22.31.32.48.26.38.5.78.72 1.19.09.15.18.29.26.44a19.75 19.75 0 011.49 3.55l.09.31c.12.4.23.8.33 1.2l.09.45.03.15c.12.64.22 1.29.29 1.94 0 .02 0 .05.01.08.06.68.1 1.36.1 2.05a20.7 20.7 0 01-6.14 14.68c-7.25 7.15-17.74 5.94-27.07 5.94h-54.36v105.81h70.89c29.22 0 52.91-23.68 52.91-52.9 0-15.34-6.52-29.14-16.94-38.81zm-35.97 59.43H280v-41.25h38.6c11.39 0 20.63 9.24 20.63 20.63s-9.24 20.62-20.63 20.62z" fill="#0075be"/>
  <path d="M42.54 319.29c14.62 0 21.85-8.6 25.02-15.83l-14.13-6.5c-1.38 4.23-5.6 7.88-10.88 7.88-7.47 0-12.75-6.01-12.75-13.57s5.28-13.57 12.75-13.57c5.28 0 9.5 3.66 10.88 7.88L67.56 279c-3.25-7.47-10.4-15.75-25.02-15.75-16.57 0-29.39 11.28-29.39 28.02s12.83 28.02 29.39 28.02zm33.72-28.01c0 16.65 12.91 28.02 29.64 28.02s29.64-11.36 29.64-28.02-12.91-28.02-29.64-28.02-29.64 11.36-29.64 28.02zm42.64 0c0 7.56-5.12 13.57-13 13.57s-13-6.01-13-13.57 5.12-13.57 13-13.57 13 6.01 13 13.57zm29 27.04h36.94v-14.29h-20.55v-39.88h-16.4v54.17zm48.41-22.25c0 13.4 7.8 23.22 26.07 23.22s25.98-9.82 25.98-23.3v-31.84h-16.64v31.35c0 5.2-2.68 9.34-9.34 9.34s-9.43-4.14-9.43-9.34v-31.35h-16.64v31.92zm115.26 22.25h16.4v-54.17h-22.65l-9.5 27.61-9.5-27.61h-22.66v54.17h16.4v-34.19l12.11 34.19h7.31l12.1-34.19v34.19zm31.67 0h34.03c10.88 0 15.99-7.14 15.99-14.69 0-6.99-4.46-12.35-10.31-13.24 5.27-1.14 9.25-5.68 9.25-12.43 0-6.33-4.86-13.8-16.07-13.8h-32.9v54.17zm16.4-34.02v-6.83h12.68c1.71 0 3.25 1.46 3.25 3.33s-1.54 3.5-3.25 3.5h-12.68zm0 20.71v-7.4h13.17c2.36 0 3.82 1.79 3.82 3.74s-1.46 3.66-3.82 3.66h-13.17zm46.72 13.31h16.4v-54.17h-16.4v54.17zm68.62 0h17.79l-19.98-54.17h-20.62l-19.98 54.17h17.79l2.11-6.99h20.78l2.11 6.99zm-12.5-39.71l6.17 19.09H456.3l6.17-19.09z" fill="#231f20"/>
</svg>
