<svg version="1.1" xmlns="http://www.w3.org/2000/svg" x="0" y="0" viewBox="0 0 940 250" xml:space="preserve">
  <path d="M528.37 86.4a30.293 30.293 0 007.47-19.96c0-7.62-2.81-14.57-7.43-19.92-5.41-6.25-13-10.49-21.45-10.49h-21.45v18.55h18.64c4.6 0 7.68 1.24 10.14 3.99 1.87 2.09 3 4.85 3 7.86 0 3.03-1.13 5.79-3 7.88-2.17 2.44-5.34 3.97-10.76 3.97h-36.54v60.81h40.72c8 0 15.27-3.09 20.7-8.14 5.97-5.55 9.7-13.48 9.7-22.27s-3.75-16.73-9.74-22.28zm-14.08 32.16c-1.88 1.26-4.15 2-6.59 2h-22.19V96.85h22.19c2.44 0 4.7.74 6.59 2 3.18 2.13 5.27 5.75 5.27 9.86 0 4.1-2.1 7.72-5.27 9.85zm-57.97-63.97h10.67V36.04h-8.57c-10.72 0-18.49.83-24.64 2.78-6.37 2.01-11.17 4.98-15.26 8.39-11.44 9.54-18.36 24.41-18.36 40.37 0 15.97 6.91 30.56 18.35 40.25 9.2 7.8 18.8 10.69 30.13 11.28v-18.55c-7.62-.61-15.14-4.21-20.85-10.4-5.31-5.75-8.89-13.83-8.89-22.59 0-7.02 2.32-15.78 8.94-22.81 5.64-5.99 14.89-10.17 28.48-10.17z" fill="#0075d1"/>
  <path d="M594 201.59h-7.1l3.55-10.97 3.55 10.97zm13.86 11.86l-11.49-31.15h-11.86l-11.49 31.15h10.23l1.21-4.02h11.95l1.21 4.02h10.24zm-40.25-31.15h-9.43v31.15h9.43V182.3zm-36.28 19.24h7.56c1.35 0 2.2 1.03 2.2 2.15 0 1.17-.84 2.1-2.2 2.1h-7.56v-4.25zm0-11.58h7.28c.98 0 1.87.84 1.87 1.91 0 1.12-.89 2.01-1.87 2.01h-7.28v-3.92zm10.14 23.49c6.26 0 9.2-4.11 9.2-8.45 0-4.02-2.57-7.1-5.93-7.61 3.03-.65 5.32-3.27 5.32-7.14 0-3.64-2.8-7.94-9.24-7.94H521.9v31.15h19.57v-.01zm-28.35 0V182.3h-13.03l-5.46 15.88-5.46-15.88h-13.03v31.15h9.43v-19.66l6.96 19.66h4.2l6.96-19.66v19.66h9.43zm-75.69-12.8c0 7.71 4.48 13.35 14.99 13.35s14.94-5.65 14.94-13.4v-18.3h-9.57v18.02c0 2.99-1.54 5.37-5.37 5.37-3.88 0-5.42-2.38-5.42-5.37V182.3h-9.57v18.35zm-6.58 12.8v-8.22h-11.81V182.3h-9.43v31.15h21.24zm-37.92-15.55c0 4.34-2.94 7.8-7.47 7.8-4.53 0-7.47-3.46-7.47-7.8s2.94-7.8 7.47-7.8c4.53 0 7.47 3.46 7.47 7.8m-24.51 0c0 9.57 7.42 16.11 17.04 16.11s17.04-6.54 17.04-16.11-7.42-16.11-17.04-16.11-17.04 6.54-17.04 16.11m-19.38 16.11c8.4 0 12.56-4.95 14.38-9.1l-8.12-3.74c-.79 2.43-3.22 4.53-6.26 4.53-4.3 0-7.33-3.46-7.33-7.8s3.04-7.8 7.33-7.8c3.04 0 5.46 2.1 6.26 4.53l8.12-3.78c-1.87-4.3-5.98-9.06-14.38-9.06-9.52 0-16.9 6.49-16.9 16.11 0 9.57 7.37 16.11 16.9 16.11"/>
</svg>
