<svg data-name="Layer 1" xmlns="http://www.w3.org/2000/svg" version="1.1" viewBox="0 0 500 125">
  <path d="M79.15 2.54H69.03c-10 0-19.94.38-29.53 3.49C29.17 9.38 20.22 16.3 13.7 24.91 7 33.78 2.82 44.42 1.6 55.46c-.26 2.34-.39 4.7-.39 7.05 0 24.06 13.37 44.82 32.69 54.47 6.55 2.83 15.35 4.88 23.82 5.65V101c0 .18-6.29-1.07-6.85-1.23-2.27-.64-4.47-1.51-6.57-2.59-4.23-2.16-8.03-5.11-11.21-8.63-7.45-8.26-11.09-19.52-9.78-30.58.95-7.99 4.36-15.64 9.8-21.6 7.29-7.99 17.79-11.29 28.32-12.04 5.89-.42 11.84-.2 17.74-.2l-.03-21.61zm71.53 58.67c5.43-6.22 8.7-14.37 8.7-23.27 0-8.32-2.97-16.49-8.34-22.85-6.25-7.41-15.35-12.62-25.13-12.58-5.09.02-10.12.02-15.17.02-2.41 0-7.61-.04-10.03-.04v21.63h9.22c3.4 0 6.93-.11 10.38-.07 3.24.03 6.64.08 9.64 1.48.13.06.27.12.4.19.15.08.3.17.45.25.27.15.54.31.8.49.07.04.13.09.19.13.21.14.42.28.63.44.1.08.19.17.29.25.02.01.04.03.06.05.3.25.58.51.86.78.05.06.11.11.16.17.23.24.46.49.68.74.07.09.15.17.22.26.19.23.37.48.54.73a10.578 10.578 0 01.7 1.12c.06.1.12.2.17.3.41.76.74 1.55 1 2.38l.06.21c.08.27.16.53.23.8l.06.3c0 .03.01.07.02.1.09.43.15.86.2 1.3v.05c.04.46.07.91.07 1.37 0 3.68-1.5 7.26-4.11 9.84-4.86 4.79-11.89 3.98-18.14 3.98H79.07v70.89h47.49c19.58 0 35.44-15.87 35.44-35.45 0-10.27-4.36-19.53-11.35-26zm-24.1 39.82h-25.87V73.39h25.87c7.63 0 13.82 6.19 13.82 13.82s-6.19 13.82-13.82 13.82z" fill="#0075be"/>
  <path d="M220.09 60.42c9.05 0 13.53-5.33 15.49-9.8l-8.75-4.02c-.85 2.62-3.47 4.88-6.74 4.88-4.63 0-7.89-3.72-7.89-8.4s3.27-8.4 7.89-8.4c3.27 0 5.88 2.26 6.74 4.88l8.75-4.07c-2.01-4.62-6.44-9.75-15.49-9.75-10.26 0-18.2 6.98-18.2 17.34s7.94 17.34 18.2 17.34zm20.87-17.34c0 10.31 7.99 17.34 18.35 17.34s18.35-7.03 18.35-17.34-7.99-17.34-18.35-17.34-18.35 7.03-18.35 17.34zm26.39 0c0 4.68-3.17 8.4-8.05 8.4s-8.04-3.72-8.04-8.4 3.17-8.4 8.04-8.4 8.05 3.72 8.05 8.4zm17.95 16.74h22.87v-8.84h-12.72V26.29H285.3v33.53zm29.97-13.78c0 8.29 4.82 14.37 16.13 14.37s16.09-6.08 16.09-14.42V26.28h-10.3v19.41c0 3.22-1.66 5.78-5.79 5.78s-5.83-2.56-5.83-5.78V26.28h-10.3v19.76zm71.35 13.78h10.15V26.28h-14.02l-5.89 17.09-5.88-17.09h-14.02v33.53h10.15V38.65l7.49 21.16h4.53l7.5-21.16v21.16zm19.61 0h21.07c6.73 0 9.9-4.42 9.9-9.1 0-4.33-2.77-7.65-6.39-8.2 3.27-.7 5.73-3.52 5.73-7.7 0-3.92-3.02-8.54-9.95-8.54h-20.36v33.53zm10.15-21.07v-4.23h7.85c1.06 0 2.01.91 2.01 2.06s-.96 2.17-2.01 2.17h-7.85zm0 12.83V47h8.15c1.46 0 2.37 1.11 2.37 2.32s-.91 2.27-2.37 2.27h-8.15zm28.91 8.24h10.15V26.28h-10.15v33.53zm42.48 0h11.01l-12.37-33.53h-12.77l-12.36 33.53h11l1.31-4.32h12.87l1.31 4.32zm-7.74-24.59l3.82 11.82h-7.64l3.82-11.82zM206.25 99.09h4.33V86.06h4.69v-3.78h-13.73v3.78h4.71v13.03zm25.76 0h4.97l-3.43-6.18c1.56-.55 3.35-2.12 3.35-5.04 0-3.13-2.12-5.59-5.85-5.59h-8.42v16.81h4.34v-5.7h2.22l2.82 5.7zm.49-11.27c0 1.16-.96 1.89-2.1 1.89h-3.43v-3.78h3.43c1.14 0 2.1.73 2.1 1.89zm12.1 4.47c0 4.13 2.42 7.11 7.81 7.11s7.79-2.95 7.79-7.13v-9.98h-4.41v9.86c0 1.99-1.06 3.43-3.38 3.43S249 94.14 249 92.15v-9.86h-4.41V92.3zm22.71 4.43c1.69 1.61 4.05 2.67 7.46 2.67 4.51 0 7.01-2.24 7.01-5.62 0-3.81-3.83-4.61-6.61-5.19-1.87-.35-2.9-.66-2.9-1.54 0-.73.55-1.31 1.99-1.31s3.32.58 4.74 1.74l2.37-3.1c-1.79-1.54-4.14-2.34-6.83-2.34-4.31 0-6.71 2.44-6.71 5.27 0 3.98 3.88 4.69 6.66 5.25 1.79.38 2.87.76 2.87 1.71 0 .81-.91 1.44-2.39 1.44-2.29 0-4.16-1.01-5.37-2.22l-2.29 3.25zm25.44 2.37h4.34V86.06h4.69v-3.78h-13.74v3.78h4.71v13.03zm36.25.3c4.18 0 6.37-2.34 7.46-4.51l-3.73-1.76c-.55 1.34-1.99 2.45-3.73 2.45-2.63 0-4.56-2.12-4.56-4.87s1.94-4.87 4.56-4.87c1.73 0 3.17 1.11 3.73 2.45l3.73-1.77C335.35 84.29 333.18 82 329 82c-5.05 0-8.97 3.5-8.97 8.7s3.93 8.7 8.97 8.7zm13.76-8.69c0 5.12 3.85 8.7 9 8.7s8.97-3.58 8.97-8.7-3.83-8.7-8.97-8.7-9 3.58-9 8.7zm13.56 0c0 2.72-1.79 4.87-4.56 4.87s-4.59-2.14-4.59-4.87 1.79-4.87 4.59-4.87 4.56 2.12 4.56 4.87zm26.65 8.39h4.33V82.28h-6.02l-3.53 9.53-3.5-9.53h-6.03v16.81h4.34V87.75l4.24 11.34h1.92l4.26-11.34v11.34zm12.65 0h4.34v-5.7h4.09c3.78 0 5.85-2.49 5.85-5.52s-2.06-5.59-5.85-5.59h-8.42v16.81zm9.87-11.24c0 1.14-.86 1.87-2.02 1.87h-3.51v-3.78h3.51c1.16 0 2.02.76 2.02 1.92zm21.45 11.24h4.71l-6.35-16.81h-5.44l-6.33 16.81h4.71l.86-2.55h6.98l.85 2.55zm-4.37-13.03l2.37 6.83h-4.71l2.34-6.83zm27.05 13.03h4.19V82.28h-4.36v9.68l-6.81-9.68h-4.46v16.81h4.34V88.93l7.11 10.16zm17.1 0h4.33v-6.78l6.35-10.03h-4.91l-3.6 6.2-3.66-6.2h-4.89l6.38 10.03v6.78z" fill="#231f20"/>
</svg>
