<svg version="1.1" xmlns="http://www.w3.org/2000/svg" x="0" y="0" viewBox="0 0 65 64.9" xml:space="preserve">
  <path d="M50.7 31.9c0 10.1-8.2 18.3-18.3 18.3S14.2 42 14.2 31.9s8.2-18.3 18.3-18.3 18.2 8.2 18.2 18.3z" fill="none" stroke="#221f20" stroke-linecap="round" stroke-linejoin="round"/>
  <path d="M32.5 19.3v3.9m0 17.3v4m5.7-19.2c-1.8-.6-3.5-1.2-5.1-1.4-8.9-1-10 8-.6 7.9 9.2 0 8.3 8.9-.6 7.9-1.7-.2-3.3-.8-5.1-1.4" fill="none" stroke="#221f20" stroke-linecap="round" stroke-linejoin="round"/>
  <g fill="none" stroke="#221f20" stroke-linecap="round" stroke-linejoin="round">
    <path d="M39.1 52.3c3 5.1 9.6 6.8 14.8 3.8"/>
    <path d="M52 59l3.3-3.2m-4.5-.8l4.5.8" stroke-miterlimit="10"/>
  </g>
  <g fill="none" stroke="#221f20" stroke-linecap="round" stroke-linejoin="round">
    <path d="M20 14c-3-5.1-9.6-6.8-14.8-3.8"/>
    <path d="M7 7.3l-3.3 3.2m4.6.8l-4.6-.8" stroke-miterlimit="10"/>
  </g>
  <path d="M23.2 12.5c2.8-1.3 5.9-2.1 9.3-2.1C44.3 10.4 54 20 54 31.9c0 9.6-6.3 17.7-14.9 20.4M20 14.5c-7.5 5.2-11.1 14.7-8.4 23.9 3.1 10.3 13.2 16.5 23.6 15.1" fill="none" stroke="#221f20" stroke-linecap="round" stroke-linejoin="round" stroke-miterlimit="10"/>
  <path d="M57.6 5.8L50.4 12m-.7-2.3v3.1l3.2-.4M6.7 57l7.3-6m.7 2.3v-3.1l-3.2.4" fill="none" stroke="#211f20" stroke-linecap="round" stroke-linejoin="round" stroke-miterlimit="10"/>
</svg>
