<svg data-name="UB Logo" xmlns="http://www.w3.org/2000/svg" version="1.1" viewBox="0 0 128.5 23.8">
  <path d="M45.2 6.8v10h-2.1v-6.4l-2.3 3.2H39l-2.3-3.2v6.4h-2.1v-10h2.1l3.2 4.5 3.2-4.5h2zm83.2 0l-3.7 4.2 3.8 5.7H126l-2.7-4.1-.9 1v3.1h-2.1V6.8h2.1v4.1l1.3-1.5 2.3-2.6h2.4zm-95.5 0V13c0 .6-.1 1.2-.3 1.7s-.4.8-.8 1.1c-.7.7-1.8 1.1-3 1.1s-2.3-.4-3-1.1-.6-.7-.7-1.1-.3-1-.3-1.6V6.9h2.1v6.4c0 .4.2.8.4 1.1s.9.6 1.5.6 1.2-.2 1.5-.6.5-.7.5-1.1V6.9h2.1zm41.6 0V13c0 .6-.1 1.2-.3 1.7s-.4.8-.8 1.1c-.7.7-1.8 1.1-3 1.1s-2.3-.4-3-1.1-.6-.7-.7-1.1-.3-1-.3-1.6V6.9h2.1v6.4c0 .4.2.8.4 1.1s.9.6 1.5.6 1.2-.2 1.5-.6.5-.7.5-1.1V6.9h2.1zm-24 0c1 0 1.8.3 2.4.8s.9 1.3.9 2.3-.3 1.8-.9 2.3-1.4.8-2.4.8H49v3.7h-2.1V6.8h3.6zm-.1 4.3c.3 0 .5 0 .7-.2.3-.2.5-.5.5-1s-.2-.8-.5-1-.4-.2-.7-.2h-1.5V11h1.5zm27.5 4l-.6 1.7H75l3.9-10h2l3.9 10h-2.3l-.6-1.7h-4.1zM80 9.5l-1.4 3.7h2.7l-1.4-3.7zm21.6 5.6l-.6 1.7h-2.3l3.9-10h2l3.9 10h-2.3l-.6-1.7h-4.1zm2.1-5.6l-1.4 3.7h2.7l-1.4-3.7zm14.9-2.7v10h-2.1l-4.6-6.4v6.4h-2.1v-10h1.8l4.9 6.8V6.8h2.1zm-22.1 4.9c.9.4 1.5 1.2 1.5 2.4s-.4 1.6-1.1 2.1-1.3.7-2.2.7h-4.2V6.8h4c1 0 1.8.3 2.4.9s.7 1.1.7 1.8c0 1.1-.4 1.8-1.1 2.2zm-3.9-1h1.8c.3 0 .5 0 .7-.2s.3-.4.3-.7-.1-.5-.3-.7-.4-.2-.7-.2h-1.8v1.8zm1.9 4.1c.3 0 .6 0 .8-.3s.3-.4.3-.8-.1-.6-.3-.8-.5-.3-.8-.3h-1.9v2.1h1.9zM64 17l-1-1c-.9.6-1.9 1-3.1 1s-2.7-.6-3.6-1.5-1.5-2.2-1.5-3.6.6-2.7 1.5-3.6 2.2-1.5 3.6-1.5 2.7.6 3.6 1.5 1.5 2.2 1.5 3.6-.3 2-.8 2.8l2.3 2.3H64zm-4.1-8.1c-.8 0-1.6.3-2.1.9s-.9 1.3-.9 2.1.3 1.6.9 2.1 1.3.9 2.1.9 1.6-.3 2.1-.9.9-1.2.9-2.1-.3-1.6-.9-2.1-1.3-.9-2.1-.9z" fill="#000"/>
  <path d="M14 22.9c-1-1.2-2.1-2.8-3.7-3.3-.3 0-.7-.1-1.1-.1s-.7 0-1.1.1c-1.6.4-2.7 2.1-3.7 3.3-1 1.2-2.9 1.2-3.9 0-.8-.9-.8-2.3 0-3.3 2-2.4 4.1-4.9 6.1-7.3.6-.7 1.1-1.4 2.1-1.6h.8c1 .2 1.5.9 2.1 1.6 2 2.4 4.1 4.9 6.1 7.3.8.9.8 2.3 0 3.3s-2.9 1.2-3.9 0zm0-10.7c-1-1.2-2.1-2.8-3.7-3.3-.3 0-.7-.1-1.1-.1s-.7 0-1.1.1c-1.6.4-2.7 2.1-3.7 3.3-1 1.2-2.9 1.2-3.9 0-.8-.9-.8-2.3 0-3.3C2.6 6.5 4.7 4 6.7 1.6 7.3.9 7.9.2 8.8 0h.8c1 .2 1.5.9 2.1 1.6 2 2.4 4.1 4.9 6.1 7.3.8.9.8 2.3 0 3.3s-2.9 1.2-3.9 0z" fill="#539ca6"/>
</svg>
