<svg data-name="Layer 1" xmlns="http://www.w3.org/2000/svg" version="1.1" viewBox="0 0 144 180">
  <path d="M135.5 92.1c-7.5 8.9-21.2 8.9-28.7 0-7.6-9-15.1-20.8-27.1-24.1-2.5-.7-5.1-1-7.8-1s-5.2.3-7.8 1c-12 3.3-19.5 15.1-27.1 24.1-7.5 8.9-21.2 8.9-28.7 0-5.8-7-5.8-17.1 0-24.1 15-17.9 30-35.7 45-53.6C57.7 9.1 61.6 4 68.8 2.8c1-.2 2-.2 3-.2s2 0 3 .2C82 4 85.9 9.1 90.3 14.4c15 17.9 30 35.7 45 53.6 5.8 7 5.8 17.1 0 24.1z" fill="#3da1ae"/>
  <path d="M135.5 170.7c-7.5 8.9-21.2 8.9-28.7 0-7.6-9-15.1-20.8-27.1-24.1-2.5-.7-5.1-1-7.8-1s-5.2.3-7.8 1c-12 3.3-19.5 15.1-27.1 24.1-7.5 8.9-21.2 8.9-28.7 0-5.8-7-5.8-17.1 0-24.1 15-17.9 30-35.7 45-53.6 4.4-5.3 8.3-10.4 15.5-11.6 1-.2 2-.2 3-.2s2 0 3 .2C82 82.6 85.9 87.7 90.3 93c15 17.9 30 35.7 45 53.6 5.8 7 5.8 17.1 0 24.1z" fill="#3da1ae"/>
</svg>
